<?xml version="1.0" encoding="UTF-8"?>
<svg data-bbox="0 0 386.427 81.465" xmlns="http://www.w3.org/2000/svg" viewBox="0 0 387 82" height="82" width="387" data-type="color">
    <g>
        <path fill="#0F437E" d="m85.36.003-.217.005v40.711h40.948C126.082 18.234 107.852.003 85.359.003" data-color="1"/>
        <path fill="#365F91" d="M40.785 0C18.295 0 .06 18.227.054 40.719h40.944V.006z" data-color="2"/>
        <path fill="#C6D0DE" d="M40.95 40.72H0v.013C0 63.23 18.239 81.465 40.734 81.465l.216-.005z" data-color="3"/>
        <path fill="#C6D0DE" d="M85.144 40.72H81.9v.016c0 14.418-7.504 27.08-18.806 34.316a40.54 40.54 0 0 0 21.927 6.413l.143-.002h-.005l-.016-.003z" data-color="3"/>
        <path fill="#7991B3" d="M126.088 40.72H85.144v40.74l.024.003h-.003l.192.002c22.495 0 40.731-18.235 40.731-40.729z" data-color="4"/>
        <path fill="#365F91" d="M85.022 0C62.527 0 44.296 18.227 44.287 40.719h40.857V.008l.092-.002z" data-color="2"/>
        <path fill="#0359A0" d="M85.144.009v40.71h.093V.007z" data-color="5"/>
        <path fill="#7991B3" d="M81.901 40.72H40.95v40.74l.22.005a40.53 40.53 0 0 0 21.924-6.413c11.302-7.236 18.807-19.898 18.807-34.316z" data-color="4"/>
        <path fill="#0F437E" d="m41.17.003-.22.005v40.711h40.951C81.89 18.234 63.66.003 41.17.003" data-color="1"/>
        <path fill="#0F437E" d="M144.028 36.27q.476-.002.786-.029c.212-.022.371-.078.493-.177.117-.09.205-.245.252-.451q.076-.312.076-.877V17.239c0-.38-.025-.669-.076-.88q-.072-.316-.266-.453a1 1 0 0 0-.509-.173 8 8 0 0 0-.784-.032v-.311h6.987q1.31 0 2.587.236c.855.155 1.61.438 2.276.843.66.407 1.205.969 1.621 1.674.419.714.624 1.613.624 2.691q-.001 2.073-1.04 3.136c-.693.707-1.665 1.214-2.916 1.5.655.13 1.273.328 1.858.61a5.6 5.6 0 0 1 1.533 1.082q.653.656 1.04 1.55c.258.593.388 1.27.388 2.02q.002 1.655-.641 2.767a5.3 5.3 0 0 1-1.68 1.804 7.1 7.1 0 0 1-2.363.984q-1.323.295-2.663.297h-7.583zm4.164-11.457h2.857q.918 0 1.753-.204a3.9 3.9 0 0 0 1.459-.678 3.25 3.25 0 0 0 .977-1.222q.358-.754.357-1.857-.001-1.127-.427-1.9a3.5 3.5 0 0 0-1.119-1.224 4.6 4.6 0 0 0-1.573-.647 9 9 0 0 0-1.814-.186c-.161 0-.357-.011-.596-.019a6 6 0 0 0-.714.019 3.5 3.5 0 0 0-.668.124.96.96 0 0 0-.492.315zm0 9.549c.098.21.247.363.443.47q.297.155.652.207.356.042.711.042h.622q1.01 0 2.016-.185a5.1 5.1 0 0 0 1.807-.688 3.85 3.85 0 0 0 1.29-1.327c.325-.55.488-1.249.488-2.107 0-.978-.2-1.753-.604-2.338a4.1 4.1 0 0 0-1.542-1.34 6.8 6.8 0 0 0-2.104-.624 17 17 0 0 0-2.268-.159h-1.511z" data-color="1"/>
        <path fill="#0F437E" d="M184.621 15.515c-.3 0-.528.092-.682.266-.163.18-.27.39-.327.643a3.6 3.6 0 0 0-.092.813v11.737q0 3.797-1.978 5.793-1.98 2.005-5.549 2.005c-2.396 0-4.253-.678-5.556-2.032-1.31-1.36-1.965-3.299-1.965-5.828v-11.86q0-.689-.148-1.114-.152-.422-.922-.424h-.444v-.311h5.557v.312q-.476.001-.756.035a.72.72 0 0 0-.446.186q-.168.16-.224.473a4.5 4.5 0 0 0-.063.843V29.02q.001 2.89 1.261 4.57c.841 1.12 2.214 1.683 4.111 1.683 1.736 0 3.09-.525 4.048-1.573.956-1.046 1.438-2.484 1.438-4.298v-12.44q-.002-.476-.134-.785a1 1 0 0 0-.458-.486c-.222-.118-.537-.177-.955-.177v-.311h4.73v.312z" data-color="1"/>
        <path fill="#0F437E" d="M193.725 36.178a.5.5 0 0 0-.149.388h-.357l-.152-4.571.062-.09h.267q.538 1.344 1.447 2.157c.601.542 1.243.936 1.913 1.174.677.24 1.357.341 2.057.298a4.4 4.4 0 0 0 1.885-.53 3.7 3.7 0 0 0 1.368-1.305c.346-.546.523-1.201.523-1.955q0-1.339-.7-2.253a8.1 8.1 0 0 0-1.744-1.644 23 23 0 0 0-2.273-1.407 16 16 0 0 1-2.273-1.5 8 8 0 0 1-1.742-1.938c-.466-.748-.7-1.669-.7-2.776 0-.815.164-1.537.492-2.178a5.5 5.5 0 0 1 1.293-1.643 5.6 5.6 0 0 1 1.828-1.046 6.3 6.3 0 0 1 2.102-.359c.412 0 .829.034 1.233.107s.81.168 1.203.298q.06.031.326.109c.18.048.373.11.581.172.211.062.402.123.579.174q.27.077.3.079.502-.062.565-.599h.326q.119 1.163.223 2.382.1 1.22.044 2.374h-.329c-.253-.786-.641-1.449-1.157-1.969a5.5 5.5 0 0 0-1.708-1.188 4.9 4.9 0 0 0-1.953-.405q-.978-.002-1.795.376a3.2 3.2 0 0 0-1.341 1.127c-.348.498-.52 1.116-.52 1.845 0 .562.144 1.063.433 1.486a6.2 6.2 0 0 0 1.023 1.173q.773.661 1.638 1.222c.576.376 1.16.727 1.756 1.065l-.211-.095c.657.359 1.284.74 1.891 1.156A9.7 9.7 0 0 1 203.6 27.3a6.1 6.1 0 0 1 1.127 1.773c.278.66.418 1.41.418 2.267q0 1.347-.565 2.396a5.7 5.7 0 0 1-1.472 1.768 6.6 6.6 0 0 1-2.039 1.095 7.2 7.2 0 0 1-2.287.375 8.8 8.8 0 0 1-2.383-.316q-1.129-.31-2.317-.655a.63.63 0 0 0-.357.175" data-color="1"/>
        <path fill="#0F437E" d="M213.145 36.584v-.314c.341 0 .61-.012.818-.028.21-.023.37-.079.491-.177.118-.091.2-.246.239-.452.036-.208.059-.5.059-.877V17.239c0-.38-.023-.669-.059-.88q-.06-.316-.239-.452c-.121-.096-.281-.152-.491-.174a9 9 0 0 0-.818-.032v-.311h5.771v.311c-.337 0-.607.012-.821.032q-.309.031-.489.174-.175.136-.238.452c-.034.211-.059.5-.059.88v17.497c0 .377.025.669.059.877.042.206.121.361.238.452.121.098.282.154.489.177.214.016.484.028.821.028v.314z" data-color="1"/>
        <path fill="#0F437E" d="M244.227 15.766a.84.84 0 0 0-.46.421c-.093.191-.14.428-.146.722q-.017.434-.017 1.034v18.72h-1.516l-11.93-17.975v15.249c0 .4.005.734.021 1.017q.01.423.144.702c.089.195.243.324.461.412q.329.124.919.123v.314h-4.787v-.314c.421 0 .737-.04.958-.123a.93.93 0 0 0 .472-.394c.101-.175.151-.405.166-.686.008-.286.013-.632.013-1.051V16.94q-.174-.41-.3-.677a1.3 1.3 0 0 0-.267-.407.77.77 0 0 0-.367-.185 4 4 0 0 0-.675-.048v-.312h3.928a331 331 0 0 0 5.559 8.547 308 308 0 0 1 5.561 8.546V17.943c0-.418-.004-.776-.012-1.064q-.017-.44-.153-.719a.76.76 0 0 0-.468-.408c-.23-.081-.554-.129-.97-.129v-.312h4.82v.312q-.623 0-.954.143" data-color="1"/>
        <path fill="#0F437E" d="M266.771 36.584h-13.59v-.314c.615 0 1.003-.084 1.164-.264.151-.18.235-.601.235-1.27V17.239c0-.669-.084-1.09-.235-1.271-.161-.174-.549-.267-1.164-.267v-.311h13.297l.028 3.225h-.416c-.1-.792-.334-1.281-.702-1.456-.366-.179-.896-.263-1.591-.263h-6.007q-.5-.002-.58.107c-.048.072-.071.28-.071.612v7.198h6.035q.477 0 .831-.048c.24-.03.431-.098.582-.205a.95.95 0 0 0 .34-.466c.082-.208.141-.486.182-.843h.383v4.692h-.383c-.041-.375-.1-.67-.182-.877a1.07 1.07 0 0 0-.34-.487 1.2 1.2 0 0 0-.565-.215 6 6 0 0 0-.848-.051h-6.035v8.173q0 .281.161.424a.74.74 0 0 0 .387.171c.147.019.31.026.472.015q.26-.017.435-.015h4.905q.718.002 1.236-.078c.35-.053.656-.16.936-.329.278-.166.529-.388.742-.668.22-.284.427-.67.63-1.147h.474z" data-color="1"/>
        <path fill="#0F437E" d="M276.169 36.178a.5.5 0 0 0-.149.388h-.359l-.144-4.571.054-.09h.27q.538 1.344 1.441 2.157c.609.542 1.248.936 1.918 1.174.676.24 1.358.341 2.057.298a4.4 4.4 0 0 0 1.889-.53 3.75 3.75 0 0 0 1.364-1.305c.346-.546.523-1.201.523-1.955 0-.893-.237-1.643-.702-2.253a8.2 8.2 0 0 0-1.737-1.644 23 23 0 0 0-2.275-1.407c-.82-.45-1.582-.95-2.275-1.5a8 8 0 0 1-1.746-1.938c-.46-.748-.699-1.669-.699-2.776 0-.815.166-1.537.494-2.178a5.5 5.5 0 0 1 1.298-1.643 5.6 5.6 0 0 1 1.823-1.046 6.3 6.3 0 0 1 2.102-.359q.623-.001 1.234.107a9 9 0 0 1 1.202.298c.042.022.146.056.325.109.18.048.375.11.585.172.205.062.399.123.579.174q.27.077.297.079.508-.062.562-.599h.327c.086.775.154 1.57.226 2.382q.105 1.22.043 2.374h-.331c-.25-.786-.639-1.449-1.156-1.969a5.4 5.4 0 0 0-1.711-1.188 4.8 4.8 0 0 0-1.947-.405q-.98-.002-1.8.376a3.2 3.2 0 0 0-1.336 1.127c-.349.498-.522 1.116-.522 1.845 0 .562.145 1.063.431 1.486.289.428.628.818 1.028 1.173.513.441 1.06.848 1.632 1.222.576.376 1.161.727 1.76 1.065l-.211-.095c.652.359 1.283.74 1.887 1.156a9.6 9.6 0 0 1 1.625 1.411 6.2 6.2 0 0 1 1.13 1.773c.277.66.412 1.41.412 2.267q0 1.347-.563 2.396a5.7 5.7 0 0 1-1.469 1.768 6.6 6.6 0 0 1-2.044 1.095 7.2 7.2 0 0 1-2.288.375 8.8 8.8 0 0 1-2.382-.316c-.75-.208-1.519-.424-2.315-.655a.63.63 0 0 0-.357.175" data-color="1"/>
        <path fill="#0F437E" d="M296.244 36.178a.5.5 0 0 0-.152.388h-.354l-.151-4.571.064-.09h.264q.536 1.344 1.448 2.157c.604.542 1.243.936 1.912 1.174.676.24 1.357.341 2.054.298a4.4 4.4 0 0 0 1.889-.53 3.7 3.7 0 0 0 1.367-1.305c.349-.546.522-1.201.522-1.955q0-1.339-.699-2.253a8.2 8.2 0 0 0-1.744-1.644 23 23 0 0 0-2.274-1.407q-1.23-.675-2.272-1.5a8.1 8.1 0 0 1-1.745-1.938c-.465-.748-.694-1.669-.694-2.776 0-.815.161-1.537.489-2.178a5.5 5.5 0 0 1 1.292-1.643 5.7 5.7 0 0 1 1.832-1.046 6.3 6.3 0 0 1 2.099-.359q.62-.001 1.233.107c.405.073.81.168 1.199.298q.061.031.334.109c.176.048.37.11.577.172.21.062.402.123.579.174q.27.077.301.079.5-.062.565-.599h.328q.115 1.163.222 2.382.103 1.22.041 2.374h-.325c-.256-.786-.643-1.449-1.161-1.969a5.5 5.5 0 0 0-1.707-1.188 4.9 4.9 0 0 0-1.952-.405q-.979-.002-1.797.376a3.16 3.16 0 0 0-1.336 1.127c-.348.498-.523 1.116-.523 1.845 0 .562.142 1.063.433 1.486.286.428.626.818 1.028 1.173.509.441 1.059.848 1.632 1.222.575.376 1.164.727 1.756 1.065l-.211-.095c.658.359 1.284.74 1.892 1.156a9.7 9.7 0 0 1 1.62 1.411 6.1 6.1 0 0 1 1.126 1.773c.279.66.419 1.41.419 2.267q0 1.347-.564 2.396a5.7 5.7 0 0 1-1.472 1.768 6.6 6.6 0 0 1-2.035 1.095 7.3 7.3 0 0 1-2.292.375 8.8 8.8 0 0 1-2.38-.316q-1.136-.31-2.318-.655a.62.62 0 0 0-.359.175" data-color="1"/>
        <path fill="#0F437E" d="M144 66.453c.298 0 .548-.01.742-.032q.303-.031.447-.19c.101-.104.171-.264.207-.466q.061-.311.062-.848V47.412c0-.35-.022-.634-.062-.836q-.055-.32-.207-.472-.144-.16-.447-.188a7 7 0 0 0-.742-.037v-.31h6.881q2.462 0 4.489.642c1.354.427 2.515 1.078 3.481 1.962.97.876 1.719 1.976 2.253 3.31q.801 2.01.801 4.732c0 1.526-.228 2.947-.683 4.273-.452 1.327-1.242 2.495-2.368 3.517-1.146 1.046-2.433 1.77-3.852 2.164q-2.135.599-4.358.598H144zm4.015-1.97c0 .186.07.334.208.434.137.106.307.18.506.234q.294.08.593.097c.199.01.345.01.443.01 1.447 0 2.759-.167 3.948-.511q1.778-.513 3.022-1.621 1.246-1.109 1.931-2.843.681-1.729.68-4.166c0-1.531-.217-2.871-.652-4.004-.432-1.132-1.051-2.082-1.855-2.823q-1.198-1.127-2.904-1.67-1.707-.547-3.812-.547-.536 0-1.099.093a2.04 2.04 0 0 0-1.009.47z" data-color="1"/>
        <path fill="#0F437E" d="M169.905 66.767v-.314q.506 0 .818-.032.311-.033.491-.173c.118-.09.2-.245.237-.455.038-.208.061-.504.061-.876V47.413q-.002-.558-.061-.871c-.037-.208-.119-.36-.237-.455q-.18-.143-.491-.171a8 8 0 0 0-.818-.037v-.308h5.771v.308a8 8 0 0 0-.818.037q-.313.029-.491.17-.178.144-.242.456a5.4 5.4 0 0 0-.056.87v17.505c0 .372.02.668.056.876.042.21.124.365.242.455q.178.14.491.173c.205.023.481.032.818.032v.314z" data-color="1"/>
        <path fill="#0F437E" d="M198.4 66.767v-.314c.452 0 .792-.094 1.011-.267.217-.175.217-.53 0-1.051l-1.846-4.76h-8.95l-1.669 4.385c-.22.543-.281.96-.194 1.257q.136.434 1.087.436v.314h-4.163v-.314c.238-.02.441-.098.609-.222.166-.121.317-.27.447-.438.13-.17.235-.354.324-.563a10 10 0 0 0 .252-.63l7.616-19.254h1.639l7.908 20.07c.219.568.647.91 1.281 1.037v.314zm-5.267-18.095-3.925 10.2h7.852z" data-color="1"/>
        <path fill="#0F437E" d="M229.727 55.427c-.289.189-.43.499-.43.91v8.454a1.7 1.7 0 0 1-.517.453 7 7 0 0 1-.735.376 5 5 0 0 1-.771.28 20 20 0 0 0-.657.205c-1.919.56-3.776.769-5.559.61q-2.678-.232-4.743-1.55c-1.38-.873-2.484-2.107-3.319-3.692-.833-1.587-1.244-3.518-1.244-5.793 0-1.562.248-3.017.739-4.351q.744-2.002 2.098-3.46a9.7 9.7 0 0 1 3.223-2.285c1.253-.552 2.632-.832 4.138-.832q1.755.002 3.568.432a2.6 2.6 0 0 0 .387.12c.22.066.45.128.7.187q.373.096.965.244a1.1 1.1 0 0 0 .417-.17.52.52 0 0 0 .24-.381h.351c0 .225 0 .55-.011.97-.011.424-.023.869-.042 1.323-.023.46-.051.894-.093 1.304-.039.404-.099.696-.178.894l.06.103.059.113-.119-.216q-.923-1.695-2.424-2.555-1.501-.862-3.374-.86c-1.366 0-2.551.25-3.554.767a7.1 7.1 0 0 0-2.498 2.105q-.999 1.338-1.471 3.107a14.4 14.4 0 0 0-.481 3.754c0 1.23.166 2.424.494 3.569a8.2 8.2 0 0 0 1.708 3.13c.796.918 1.697 1.575 2.706 1.957a9 9 0 0 0 3.244.583c.237 0 .571-.025.995-.066.428-.04.851-.11 1.279-.203a6 6 0 0 0 1.194-.387q.544-.257.756-.66v-7.455q-.001-.526-.181-.781a.9.9 0 0 0-.477-.344 1.9 1.9 0 0 0-.652-.077q-.356.016-.744.017v-.441h5.92v.318a1.75 1.75 0 0 0-.967.274m-1.354-5.507-.059-.111-.06-.107z" data-color="1"/>
        <path fill="#0F437E" d="M256.006 45.868a.87.87 0 0 0-.461.425 1.8 1.8 0 0 0-.146.719q-.019.442-.017 1.034v18.72h-1.517L241.936 48.8v15.25q0 .589.017 1.01c.005.282.059.515.149.709a.76.76 0 0 0 .464.404q.325.127.915.127v.314h-4.787V66.3q.623 0 .952-.127a.84.84 0 0 0 .475-.393c.101-.174.152-.405.166-.685q.015-.424.014-1.045V47.042l-.298-.67a1.1 1.1 0 0 0-.267-.406.75.75 0 0 0-.374-.191 3.5 3.5 0 0 0-.668-.05v-.308h3.927a331 331 0 0 0 5.558 8.546q2.83 4.201 5.563 8.546V48.046c0-.42 0-.77-.012-1.062q-.016-.439-.148-.722c-.088-.188-.251-.323-.475-.407q-.343-.128-.967-.13v-.308h4.816v.308q-.621.002-.95.143" data-color="1"/>
        <path fill="#0F437E" d="M283.187 60.05c-.413 1.329-1.025 2.49-1.826 3.489a8.6 8.6 0 0 1-2.959 2.369c-1.174.573-2.508.859-4.016.859q-2.293 0-4.049-.86a8.65 8.65 0 0 1-2.953-2.348q-1.21-1.49-1.815-3.49-.615-2.005-.613-4.258.002-2.79.803-4.852c.537-1.38 1.248-2.531 2.142-3.46q1.338-1.392 3.031-2.084a8.8 8.8 0 0 1 3.454-.671 9.4 9.4 0 0 1 3.449.699 9 9 0 0 1 3.034 2.068q1.337 1.383 2.142 3.459.8 2.085.8 4.84c0 1.503-.204 2.917-.624 4.24m-2.425-7.633a10.5 10.5 0 0 0-1.173-3.085 6.9 6.9 0 0 0-2.08-2.256c-.857-.588-1.9-.874-3.123-.874-1.254 0-2.299.286-3.156.874a6.9 6.9 0 0 0-2.079 2.256 10.2 10.2 0 0 0-1.157 3.065 16 16 0 0 0-.361 3.346q-.002 1.668.361 3.37a10 10 0 0 0 1.157 3.07 6.8 6.8 0 0 0 2.079 2.218c.857.577 1.902.865 3.156.865 1.223 0 2.274-.288 3.134-.865a6.6 6.6 0 0 0 2.095-2.236c.541-.915.925-1.944 1.164-3.073.236-1.123.36-2.236.36-3.35 0-1.08-.126-2.196-.377-3.325" data-color="1"/>
        <path fill="#0F437E" d="M292.468 65.969a.53.53 0 0 0-.152.389h-.354l-.151-4.568.061-.096h.267c.36.898.838 1.618 1.444 2.163.608.539 1.242.933 1.917 1.175.676.235 1.356.34 2.056.292a4.4 4.4 0 0 0 1.885-.528 3.7 3.7 0 0 0 1.368-1.304c.345-.551.523-1.203.523-1.95q0-1.349-.7-2.26a8.1 8.1 0 0 0-1.744-1.64 23 23 0 0 0-2.274-1.41c-.82-.443-1.579-.95-2.272-1.503a8 8 0 0 1-1.745-1.938q-.696-1.112-.696-2.773 0-1.223.492-2.175a5.3 5.3 0 0 1 1.291-1.64 5.7 5.7 0 0 1 1.829-1.054 6.4 6.4 0 0 1 2.102-.362c.413 0 .829.039 1.233.11a9.5 9.5 0 0 1 1.203.3c.043.019.148.059.329.112q.264.075.578.168c.211.066.403.12.579.172.183.053.28.082.3.082q.501-.066.566-.596h.328q.113 1.158.222 2.377c.064.815.081 1.612.042 2.382h-.329q-.382-1.188-1.157-1.973a5.5 5.5 0 0 0-1.708-1.191 4.9 4.9 0 0 0-1.95-.404q-.981-.002-1.797.373a3.3 3.3 0 0 0-1.341 1.127c-.346.5-.522 1.119-.522 1.846 0 .565.142 1.059.435 1.487a6 6 0 0 0 1.02 1.174c.517.44 1.064.845 1.641 1.225.574.37 1.163.73 1.753 1.062l-.209-.092c.658.356 1.284.737 1.891 1.154a9.7 9.7 0 0 1 1.621 1.415 6 6 0 0 1 1.127 1.768c.284.658.418 1.408.418 2.267q0 1.349-.564 2.393a5.6 5.6 0 0 1-1.475 1.77 6.6 6.6 0 0 1-2.037 1.099 7.3 7.3 0 0 1-2.287.373 8.8 8.8 0 0 1-2.379-.314q-1.137-.312-2.321-.657a.65.65 0 0 0-.357.173" data-color="1"/>
        <path fill="#0F437E" d="M327.471 49.327c-.154-.834-.413-1.405-.755-1.706-.346-.3-.918-.455-1.71-.455h-3.867v17.75c0 .374.02.664.058.86q.06.303.242.455c.116.108.282.169.487.19q.316.033.817.032v.314h-5.767v-.314q.478 0 .786-.031c.208-.022.377-.083.492-.191.121-.103.204-.252.253-.455.05-.196.076-.486.076-.86v-17.75h-3.929c-.772 0-1.34.16-1.711.472-.362.309-.626.878-.786 1.689h-.269l.121-3.756h15.673l.088 3.756z" data-color="1"/>
        <path fill="#0F437E" d="M335.77 66.767v-.314c.341 0 .606-.01.821-.032q.312-.033.488-.173c.121-.09.2-.245.242-.455.04-.208.058-.504.058-.876V47.413q.001-.558-.058-.871-.062-.312-.242-.455-.176-.143-.488-.171a8 8 0 0 0-.821-.037v-.308h5.773v.308q-.51.002-.814.037c-.213.019-.376.076-.498.17-.114.096-.196.248-.238.456a5 5 0 0 0-.059.87v17.505c0 .372.018.668.059.876.042.21.124.365.238.455.122.094.285.15.498.173q.304.033.814.032v.314z" data-color="1"/>
        <path fill="#0F437E" d="M363.206 66.21c-1.14.37-2.331.557-3.585.557-1.584 0-3.001-.264-4.236-.8a9.1 9.1 0 0 1-3.164-2.234c-.872-.961-1.539-2.112-1.997-3.467-.455-1.343-.681-2.831-.681-4.455 0-1.568.236-3.021.715-4.373a10.5 10.5 0 0 1 2.034-3.505 9.3 9.3 0 0 1 3.184-2.315c1.238-.551 2.626-.832 4.145-.832 1.051 0 2.105.129 3.155.37q.177.059.459.14c.188.049.387.108.582.17.198.059.386.113.564.152q.27.063.446.062.563-.001.717-.55h.329v1.134a44 44 0 0 1-.077 2.562 7 7 0 0 1-.165 1.099q-1.043-1.785-2.321-2.71-1.276-.92-3.33-.92c-1.329 0-2.477.249-3.445.766a6.8 6.8 0 0 0-2.397 2.063c-.624.862-1.091 1.865-1.4 3.02a14.2 14.2 0 0 0-.463 3.65c0 1.32.163 2.56.48 3.708.317 1.158.799 2.157 1.438 3.009a7 7 0 0 0 2.446 2.015q1.466.74 3.494.74c.468 0 .987-.017 1.539-.035q.836-.03 1.655-.171a7.6 7.6 0 0 0 1.557-.44 4.4 4.4 0 0 0 1.34-.823l.124.529c-.953.885-2.004 1.515-3.142 1.885" data-color="1"/>
        <path fill="#0F437E" d="M375.004 65.972a.5.5 0 0 0-.151.387h-.354l-.151-4.571.063-.09h.266q.535 1.344 1.446 2.158.908.814 1.914 1.174c.676.239 1.356.34 2.052.298a4.4 4.4 0 0 0 1.888-.531 3.7 3.7 0 0 0 1.37-1.304c.347-.547.522-1.202.522-1.955q0-1.339-.7-2.253a8.1 8.1 0 0 0-1.745-1.644 22 22 0 0 0-2.273-1.407 16 16 0 0 1-2.272-1.501 8 8 0 0 1-1.744-1.938q-.696-1.119-.695-2.776c0-.815.161-1.537.488-2.177a5.5 5.5 0 0 1 1.293-1.643 5.7 5.7 0 0 1 1.832-1.047 6.3 6.3 0 0 1 2.098-.358c.413 0 .826.033 1.234.107.405.072.809.167 1.2.297q.059.032.334.11c.175.047.368.11.576.17q.315.098.579.175c.179.05.282.079.3.079q.502-.062.566-.598h.327q.117 1.163.223 2.382c.071.812.081 1.604.042 2.374h-.325c-.255-.787-.645-1.45-1.162-1.97a5.5 5.5 0 0 0-1.707-1.188 4.9 4.9 0 0 0-1.953-.405q-.978-.001-1.796.377a3.16 3.16 0 0 0-1.336 1.126q-.523.749-.522 1.846c0 .563.143 1.063.431 1.486.287.428.626.818 1.029 1.172.509.44 1.059.849 1.633 1.222.574.377 1.163.727 1.756 1.065l-.212-.095c.658.359 1.284.74 1.892 1.157a9.7 9.7 0 0 1 1.621 1.41 6.1 6.1 0 0 1 1.126 1.773c.279.66.42 1.41.42 2.267q-.001 1.347-.566 2.397a5.7 5.7 0 0 1-1.472 1.767 6.6 6.6 0 0 1-2.034 1.095 7.3 7.3 0 0 1-2.293.375 8.8 8.8 0 0 1-2.379-.315c-.757-.208-1.533-.425-2.318-.655a.62.62 0 0 0-.361.175" data-color="1"/>
    </g>
</svg>
